<svg data-v-423bf9ae="" xmlns="http://www.w3.org/2000/svg" viewBox="0 0 246.6774431867736 60" class="font"><!----><!----><!----><g data-v-423bf9ae="" id="581406bf-a190-431b-a957-b3860e767a4a" fill="white" transform="matrix(4.838709831237793,0,0,4.838709831237793,-5.661290168762207,-18.483869552612305)"><path d="M4.43 3.82L1.17 3.82L1.17 13.15L2.65 13.15L2.65 9.45L4.43 9.44C5.92 9.42 7.44 8.44 7.44 6.64C7.44 4.81 5.92 3.82 4.43 3.82ZM3.88 8.30L2.65 8.27L2.65 4.99L3.88 4.97C5.19 4.96 5.89 5.59 5.89 6.64C5.89 7.70 5.19 8.31 3.88 8.30ZM11.94 13.34C14.03 13.34 15.49 11.81 15.49 9.84C15.49 7.89 14.03 6.36 11.94 6.36C9.83 6.36 8.39 7.89 8.39 9.84C8.39 11.81 9.83 13.34 11.94 13.34ZM11.94 12.13C10.72 12.13 9.86 11.14 9.86 9.84C9.86 8.56 10.72 7.57 11.94 7.57C13.15 7.57 14.01 8.56 14.01 9.84C14.01 11.14 13.15 12.13 11.94 12.13ZM22.09 6.53L21.90 7.47C21.39 6.80 20.62 6.36 19.60 6.36C17.88 6.36 16.51 7.67 16.51 9.81C16.51 11.96 17.88 13.27 19.60 13.27C20.56 13.27 21.32 12.89 21.83 12.26L21.83 12.43C21.83 14.13 21.32 15.02 19.92 15.02C19.56 15.02 19.16 14.95 18.81 14.79L18.49 15.98C18.93 16.13 19.47 16.22 19.99 16.22C22.15 16.22 23.25 14.95 23.25 12.54L23.25 6.53ZM19.94 12.07C18.74 12.07 17.95 11.11 17.95 9.81C17.95 8.53 18.74 7.54 19.94 7.54C21.18 7.54 21.98 8.53 21.98 9.81C21.98 11.11 21.18 12.07 19.94 12.07ZM25.91 13.29C26.43 13.29 26.83 12.88 26.83 12.38C26.83 11.89 26.43 11.48 25.91 11.48C25.42 11.48 25.01 11.89 25.01 12.38C25.01 12.88 25.42 13.29 25.91 13.29ZM35.28 3.82L35.28 10.78L30.30 3.82L28.90 3.82L28.90 13.15L30.35 13.15L30.35 6.21L35.32 13.15L36.71 13.15L36.71 3.82ZM44.74 5.07L44.74 3.82L39.05 3.82L39.05 13.15L44.74 13.15L44.74 11.90L40.54 11.90L40.54 9.07L44.01 9.07L44.01 7.90L40.54 7.90L40.54 5.07ZM52.15 3.82L45.53 3.82L45.53 5.09L48.11 5.09L48.11 13.15L49.60 13.15L49.60 5.09L52.15 5.09Z"></path></g><!----><!----></svg>